<svg xmlns="http://www.w3.org/2000/svg">
  <defs>
    <symbol id="ico-done" viewBox="0 0 48 48">
      <path fill="none" d="M0 0L48 0L48 48L0 48L0 0Z" />
      <path fill="currentColor" fill-rule="evenodd"
        d="M36 14.0002L33.18 11.1802L20.5 23.8602L23.32 26.6802L36 14.0002L36 14.0002ZM44.4801 11.1802L23.3201 32.3402L14.9601 24.0002L12.1401 26.8202L23.3201 38.0002L47.3201 14.0002L44.4801 11.1802L44.4801 11.1802ZM0.820068 26.82L12.0001 38L14.8201 35.18L3.66007 24L0.820068 26.82L0.820068 26.82Z" />
    </symbol>
    <symbol id="ico-chat" viewBox="0 0 48 48">
      <path fill="none" d="M0 0L48 0L48 48L0 48L0 0L0 0Z" />
      <path fill="currentColor" fill-rule="evenodd"
        d="M40 4L8 4C5.8 4 4 5.8 4 8L4 44L12 36L40 36C42.2 36 44 34.2 44 32L44 8C44 5.8 42.2 4 40 4L40 4ZM40 32L12 32L8 36L8 8L40 8L40 32L40 32Z" />
    </symbol>
    <symbol id="ico-person" viewBox="0 0 48 48">
      <path fill="none" d="M0 0L48 0L48 48L0 48L0 0L0 0Z" />
      <path fill="currentColor" fill-rule="evenodd"
        d="M24 12C26.2 12 28 13.8 28 16C28 18.2 26.2 20 24 20C21.8 20 20 18.2 20 16C20 13.8 21.8 12 24 12M24 32C29.4 32 35.6 34.58 36 36L12 36C12.46 34.56 18.62 32 24 32M24 8C19.58 8 16 11.58 16 16C16 20.42 19.58 24 24 24C28.42 24 32 20.42 32 16C32 11.58 28.42 8 24 8L24 8ZM24 28C18.66 28 8 30.68 8 36L8 40L40 40L40 36C40 30.68 29.34 28 24 28L24 28Z" />
    </symbol>
    <symbol id="ico-work" viewBox="0 0 48 48">
      <path fill="none" d="M0 0L48 0L48 48L0 48L0 0L0 0Z" />
      <path fill="currentColor" fill-rule="evenodd"
        d="M28 12L28 8L20 8L20 12L28 12L28 12ZM8 16L8 38L40 38L40 16L8 16L8 16ZM40 12C42.22 12 44 13.78 44 16L44 38C44 40.22 42.22 42 40 42L8 42C5.78 42 4 40.22 4 38L4.02 16C4.02 13.78 5.78 12 8 12L16 12L16 8C16 5.78 17.78 4 20 4L28 4C30.22 4 32 5.78 32 8L32 12L40 12L40 12Z" />
    </symbol>
    <symbol id="ico-github" viewBox="0 0 48 48">
      <path fill="none" d="M0 0L48 0L48 48L0 48L0 0L0 0Z" />
      <path fill="currentColor" fill-rule="evenodd"
        d="M24.0529 8C15.1703 8 8 15.3386 8 24.4296C8 31.6586 12.6018 37.7924 19.023 39.983C19.8792 40.0925 20.0932 39.6544 20.0932 39.2163L20.0932 36.3685C15.5984 37.3542 14.6352 34.1778 14.6352 34.1778C13.8861 32.3158 12.8159 31.7682 12.8159 31.7682C11.3176 30.7824 12.9229 30.7824 12.9229 30.7824C14.5282 30.8919 15.3843 32.4254 15.3843 32.4254C16.7756 34.9446 19.13 34.1778 20.0932 33.7397C20.2002 32.6444 20.6283 31.9872 21.1634 31.5491C17.6318 31.111 13.8861 29.6871 13.8861 23.4438C13.8861 21.6913 14.5282 20.1579 15.4914 19.0626C15.2773 18.6245 14.7422 16.9815 15.5984 14.6814C15.5984 14.6814 16.9896 14.2433 19.9862 16.3243C21.2704 15.9957 22.6617 15.7767 24.0529 15.7767C25.4442 15.7767 26.8354 15.9957 28.1197 16.3243C31.2232 14.2433 32.5075 14.6814 32.5075 14.6814C33.3636 16.9815 32.8285 18.6245 32.6145 19.0626C33.6847 20.1579 34.2198 21.6913 34.2198 23.4438C34.2198 29.7966 30.4741 31.111 26.9424 31.5491C27.4775 32.0968 28.0126 33.0825 28.0126 34.616L28.0126 39.1067C28.0126 39.5449 28.3337 40.0925 29.0828 39.8734C35.504 37.6828 39.9988 31.5491 39.9988 24.3201C40.1058 15.3386 32.9355 8 24.0529 8L24.0529 8Z" />
    </symbol>
    <symbol id="ico-gitlab" viewBox="0 0 48 48">
      <path fill="none" d="M0 0L48 0L48 48L0 48L0 0L0 0Z" />
      <path fill="currentColor" fill-rule="evenodd"
        d="M14.5807 9.44308L17.8557 20.5749L30.1446 20.5749L33.4196 9.44308C33.4952 9.18382 33.7313 9.00432 34.0014 9.00079C34.2716 8.99726 34.5124 9.17052 34.5947 9.42773L39.9634 26.2007C40.0625 26.51 39.956 26.8482 39.6976 27.0452L24.0002 39L8.30112 27.0452C8.04329 26.8478 7.93751 26.5097 8.03691 26.2007L13.4056 9.42773C13.4876 9.17043 13.7281 8.99687 13.9983 9.00004C14.2684 9.00322 14.5048 9.18239 14.5807 9.44155L14.5807 9.44308Z" />
    </symbol>
    <symbol id="ico-linkedin" viewBox="0 0 48 48">
      <path fill="none" d="M0 0L48 0L48 48L0 48L0 0L0 0Z" />
      <path fill="currentColor" fill-rule="evenodd"
        d="M37.7143 8L10.2786 8C9.02143 8 8 9.03571 8 10.3071L8 37.6929C8 38.9643 9.02143 40 10.2786 40L37.7143 40C38.9714 40 40 38.9643 40 37.6929L40 10.3071C40 9.03572 38.9714 8 37.7143 8L37.7143 8ZM17.6714 35.4286L12.9286 35.4286L12.9286 20.1571L17.6786 20.1571L17.6786 35.4286L17.6714 35.4286ZM15.3 18.0714C13.7786 18.0714 12.55 16.8357 12.55 15.3214C12.55 13.8071 13.7786 12.5714 15.3 12.5714C16.8143 12.5714 18.05 13.8071 18.05 15.3214C18.05 16.8429 16.8214 18.0714 15.3 18.0714L15.3 18.0714ZM35.45 35.4286L30.7072 35.4286L30.7072 28C30.7072 26.2286 30.6715 23.95 28.2429 23.95C25.7715 23.95 25.3929 25.8786 25.3929 27.8714L25.3929 35.4286L20.65 35.4286L20.65 20.1571L25.2 20.1571L25.2 22.2429L25.2643 22.2429C25.9 21.0429 27.45 19.7786 29.7572 19.7786C34.5572 19.7786 35.45 22.9429 35.45 27.0571L35.45 35.4286L35.45 35.4286Z" />
    </symbol>
    <symbol id="ico-twitter" viewBox="0 0 48 48">
      <path fill="none" d="M0 0L48 0L48 48L0 48L0 0L0 0Z" />
      <path fill="currentColor" fill-rule="evenodd"
        d="M37.25 16.6234C37 28.1234 29.75 36.1233 18.75 36.6233C14.25 36.8733 11 35.3733 8 33.6233C11.25 34.1233 15.5 32.8733 17.75 30.8734C14.5 30.6233 12.5 28.8734 11.5 26.1234C12.5 26.3734 13.5 26.1234 14.25 26.1234C11.25 25.1234 9.25 23.3734 9 19.3734C9.75 19.8734 10.75 20.1234 11.75 20.1234C9.5 18.8734 8 14.1234 9.75 11.1234C13 14.6234 17 17.6234 23.5 18.1234C21.75 11.1234 31.25 7.37338 35 12.1234C36.75 11.8734 38 11.1234 39.25 10.6234C38.75 12.3734 37.75 13.3734 36.5 14.3734C37.75 14.1234 39 13.8734 40 13.3734C39.75 14.6234 38.5 15.6234 37.25 16.6234L37.25 16.6234L37.25 16.6234Z" />
    </symbol>
  </defs>
</svg>
